<?xml version="1.0" encoding="UTF-8"?>
<svg width="189.79" height="157.5" version="1.1" viewBox="0 0 189.79 157.5" xmlns="http://www.w3.org/2000/svg">
 <g id="bg" transform="translate(-153.53 -798.17)">
  <g fill="#fff" stroke-width="1.109">
   <rect width="750" height="625" stop-color="#000000"/>
   <path d="m800 0v360h54.578v-71.65h850.84v71.65h54.578v-360z" stop-color="#000000"/>
   <rect x="930" y="400" width="700" height="220" stop-color="#000000"/>
  </g>
  <g fill="#ffffff" font-family="Aclonica" font-size="21.333px" letter-spacing="0px" stroke-width=".26458" word-spacing="0px">
   <text x="929.1377" y="394.02734" style="line-height:1.25" xml:space="preserve"><tspan x="929.1377" y="394.02734" fill="#ffffff" font-family="'Liberation Sans'" font-size="21.333px" stroke-width=".26458">Welcome Screen:</tspan></text>
   <text x="799.47223" y="-8.4173737" style="line-height:1.25" xml:space="preserve"><tspan x="799.47223" y="-8.4173737" fill="#ffffff" font-family="'Liberation Sans'" font-size="21.333px" stroke-width=".26458">Website Title:</tspan></text>
   <text x="2.7302999" y="-8.8984184" style="line-height:1.25" xml:space="preserve"><tspan x="2.7302999" y="-8.8984184" fill="#ffffff" font-family="'Liberation Sans'" font-size="21.333px" stroke-width=".26458">About Screen:</tspan></text>
   <text x="1018.1498" y="-63.358139" style="line-height:1.25" xml:space="preserve"><tspan x="1018.1498" y="-63.358139" fill="#ffffff" font-family="'Liberation Sans'" font-size="21.333px" stroke-width=".26458">Optional formats to consider when making your graphic</tspan></text>
  </g>
 </g>
 <g transform="translate(-153.53 -798.17)" fill="#fff" stroke-width="0">
  <path d="m153.53 928.41c36.61-43.46 69.036-87.616 110.65-130.24-30.585 43.747-58.81 88.996-85.955 134.93 0 0-24.898-3.8504-24.698-4.6913z"/>
  <path d="m264.18 798.17c23.917 30.471 45.35 62.957 56.464 97.8 2.6631 9.3258 2.7875 18.204 0.11766 26.588-3.1507 8.4756-8.883 11.435-15.294 14.471-11.404 5.3994-26.026 3.486-39.461 3.5437l-87.782-7.4701-13.463 22.279 73.73 0.29c21.479-0.1589 42.654-0.8119 63.917-4.0547 9.0842-1.2809 18.001-2.9439 26-6.7059 7.9332-3.4944 11.772-9.1436 13.765-15.765 1.8127-9.9085 1.2478-14.484-0.11766-19.882-2.4318-9.6143-5.4901-19.124-11.647-28.118-33.025-54.568-47.143-60.53-66.229-82.977z"/>
  <path d="m193.24 925.31c23.443-37.153 45.419-75.385 70.775-111.13 33.949 44.748 34.981 52.107 42.341 69.013 4.8901 10.32 6.98 21.109 4.2584 32.724-1.1686 2.1355-1.7647 15.157-34.768 15.498-23.464 0.0606-54.295-3.6687-82.607-6.102z"/>
 </g>
</svg>
